# xmcd
#
# Track frame offsets: 
#        150
#        13838
#        27782
#        41167
#        53941
#        66098
#        79260
#        92978
#        107179
#        119900
#        133604
#        146244
#        159341
#        172955
#        186319
#        197824
#        225894
#        240521
#
# Disc length: 3386 seconds
#
# Revision: 0
# Processed by: cddbd v1.4PL0 Copyright (c) Steve Scherf et al.
# Submitted via: ExactAudioCopy v0.95a3
#
DISCID=fe0d3812
DTITLE=BB King - Blues Kingpins (Made in Mississippi)
DYEAR=2003
DGENRE=Blues
TTITLE0=Three O'Clock Blues
TTITLE1=You Know I Love You
TTITLE2=Woke Up This Morning (My Baby's Gone)
TTITLE3=Please Love Me
TTITLE4=Please Hurry Home
TTITLE5=When My Heart Beats Like A Hammer
TTITLE6=You Upset Me Baby
TTITLE7=Whole Lotta Love
TTITLE8=Everyday (I Have The Blues)
TTITLE9=Sneakin' Around (With You)
TTITLE10=Ten Long Years
TTITLE11=Bad Luck
TTITLE12=Sweet Little Angel
TTITLE13=Troubles, Troubles, Troubles
TTITLE14=Please Accept My Love
TTITLE15=Sweet Sixteen
TTITLE16=I've Got A Right To Love My Baby
TTITLE17=Rock Me Baby
EXTD=
EXTT0=
EXTT1=
EXTT2=
EXTT3=
EXTT4=
EXTT5=
EXTT6=
EXTT7=
EXTT8=
EXTT9=
EXTT10=
EXTT11=
EXTT12=
EXTT13=
EXTT14=
EXTT15=
EXTT16=
EXTT17=
PLAYORDER=
